# xmcd
#
# Track frame offsets:
#	150
#	13805
#	25990
#	39037
#	50430
#	63132
#	74350
#	88347
#	102447
#	114275
#	128507
#	140172
#	151667
#	163112
#	176952
#	190820
#	201662
#	212157
#	222010
#	236165
#	248742
#	261437
#	274240
#	286457
#	299772
#	313067
# Disc length: 4372 seconds
# Revision: 2
# Processed by: cddbd v1.5.1PL0 Copyright (c) Steve Scherf et al.
#
# Submitted via: libkcddb 0.10
#
DISCID=9811121a
DTITLE=Orioles - The Jubilee Recordings [CD 2)
DYEAR=1900
DGENRE=Unknown
TTITLE0=Would You Still Be The One In My...
TTITLE1=You Are My First Love
TTITLE2=If It's To Be
TTITLE3=I Wonder When
TTITLE4=Everything They Said Came True
TTITLE5=I'd Rather Have You Under The Moon
TTITLE6=We're Supposed To Be Through
TTITLE7=We're Supposed To Be Through
TTITLE8=I Need You So
TTITLE9=Goodnight Irene
TTITLE10=I Cross My Fingers
TTITLE11=I Cross My Fingers
TTITLE12=Can't Seem To Laugh Anymore
TTITLE13=Walking By The River
TTITLE14=I Miss You So
TTITLE15=The Lord's Prayer
TTITLE16=Oh Holy Night
TTITLE17=I Had To Leave Town
TTITLE18=My Prayer
TTITLE19=I Never Knew (If I Could Love Anybody)
TTITLE20=Pal Of Mine
TTITLE21=Pal Of Mine
TTITLE22=Happy Go Lucky Local Blues
TTITLE23=Would I Love You (Love You, Love You)
TTITLE24=Would I Love You (Love You, Love You)
TTITLE25=When You're A Long, Long Way From Home
EXTD=
EXTT0=
EXTT1=
EXTT2=
EXTT3=
EXTT4=
EXTT5=
EXTT6=
EXTT7=
EXTT8=
EXTT9=
EXTT10=
EXTT11=
EXTT12=
EXTT13=
EXTT14=
EXTT15=
EXTT16=
EXTT17=
EXTT18=
EXTT19=
EXTT20=
EXTT21=
EXTT22=
EXTT23=
EXTT24=
EXTT25=
PLAYORDER=
